<svg xmlns="http://www.w3.org/2000/svg" version="1.2" viewBox="114.87 360.6 363.73 97.3">
	<title>InfraOne_Logo</title>
	<style>
		.s0 { fill: #ffffff } 
		.s1 { fill: #3c9646 } 
	</style>
	<g id="InfraOne">
		<g id="&lt;Group&gt;">
			<path id="&lt;Compound Path&gt;" class="s0" d="m229.7 374.8v46h-8.6v-46z"/>
			<path id="&lt;Compound Path&gt;" class="s0" d="m239 395.2c0-2.9 0-6-0.1-8.6h8.1c0.1 1 0.2 3.7 0.3 4.8 1.2-2.4 4-5.6 10.2-5.6 6.7 0 11.3 4.4 11.3 13.2v21.8h-8.2v-20.9c0-4.2-1.6-7.3-6.1-7.3q-7.2 0-7.2 9.5v18.7h-8.3z"/>
			<path id="&lt;Compound Path&gt;" class="s0" d="m279 420.8v-27.8h-5.2v-6.4h5.2v-3.3c0-6.8 3.1-11.8 10.6-11.8 1.4 0 3.3 0.2 4.1 0.4v6.7c-0.6-0.1-1.5-0.2-2.3-0.2-3 0-4.2 1.4-4.2 5.5v2.7h6.3v6.4h-6.3v27.8z"/>
			<path id="&lt;Compound Path&gt;" class="s0" d="m298.1 395.9c0-3.8 0-6.8 0-9.3h8.1c0.1 0.9 0.2 4 0.2 6.4 1.6-4.2 5.4-7.1 11.1-7.2v8c-6.9 0-11.1 2.4-11.1 11.5v15.5h-8.3z"/>
			<path id="&lt;Compound Path&gt;" fill-rule="evenodd" class="s0" d="m349.6 412.4c0 3.3 0.3 7.5 0.5 8.4h-7.9c-0.3-0.7-0.5-2.4-0.5-3.7-1.2 2-3.7 4.5-9.9 4.5-8.2 0-11.7-5.3-11.7-10.6 0-7.7 6.2-11.3 16.3-11.3 1.9 0 4 0 5.2 0v-2.4c0-2.6-0.9-5.4-6-5.4-4.6 0-5.5 2.1-6 4.6h-7.9c0.5-5.6 4-10.7 14.2-10.7 8.9 0.1 13.7 3.6 13.7 11.6zm-8-7.5c-0.9 0-3 0-4.4 0-6.1 0-8.7 1.7-8.7 5.6 0 2.8 1.8 5 5.5 5 6.7 0 7.6-4.6 7.6-9.7z"/>
			<path id="&lt;Compound Path&gt;" class="s0" d="m410.5 395.2c0-2.9 0-6-0.1-8.6h8c0.2 1 0.3 3.7 0.3 4.8 1.3-2.4 4-5.6 10.2-5.6 6.7 0 11.4 4.4 11.4 13.2v21.8h-8.3v-20.9c0-4.2-1.5-7.3-6-7.3q-7.3 0-7.3 9.5v18.7h-8.2z"/>
			<path id="&lt;Compound Path&gt;" fill-rule="evenodd" class="s0" d="m455.4 405.4c0.1 5.2 2.6 9.6 7.7 9.6 4.5 0 5.8-1.9 6.8-4.2h8.2c-1.2 4.3-4.9 10.8-15.2 10.8-11.1 0-15.8-8.5-15.8-17.4 0-10.6 5.4-18.4 16.2-18.4 11.4 0 15.3 8.7 15.3 16.8 0 1.1 0 1.9-0.1 2.8zm14.9-5.2c-0.1-4.6-2.1-8.3-7.1-8.3-5.1 0-7.2 3.5-7.6 8.3z"/>
		</g>
		<g id="&lt;Group&gt;">
			<path id="&lt;Compound Path&gt;" class="s0" d="m225.1 439.2v18.5h-4v-18.5z"/>
			<path id="&lt;Compound Path&gt;" class="s0" d="m240.4 442.5h-5.6v-3.3h15.2v3.3h-5.6v15.2h-4z"/>
			<path id="&lt;Compound Path&gt;" class="s0" d="m273.2 452.3c0.4 1.8 1.8 2.6 3.9 2.6 2.1 0 3-0.8 3-2.2 0-1.5-0.8-2.1-4-2.9-5-1.1-6.3-3-6.3-5.5 0-3.2 2.4-5.4 6.8-5.4 4.9 0 6.9 2.7 7.1 5.4h-4c-0.2-1.2-0.8-2.4-3.2-2.4-1.6 0-2.6 0.7-2.6 2 0 1.3 0.8 1.8 3.8 2.5 5.3 1.2 6.5 3.2 6.5 5.8 0 3.4-2.5 5.7-7.4 5.7-4.7 0-7.2-2.3-7.6-5.6z"/>
			<path id="&lt;Compound Path&gt;" fill-rule="evenodd" class="s0" d="m311.4 448.4c0 5.1-3.1 9.5-9.1 9.5-5.8 0-8.8-4.2-8.8-9.5 0-5.3 3.3-9.5 9.1-9.5 5.4 0 8.8 3.8 8.8 9.5zm-13.8 0c0 3.6 1.6 6.3 4.8 6.3 3.6 0 4.9-3 4.9-6.3 0-3.5-1.5-6.2-4.9-6.2-3.4 0-4.8 2.6-4.8 6.2z"/>
			<path id="&lt;Compound Path&gt;" class="s0" d="m321.8 439.2h4v15.2h9.2l-0.4 3.3h-12.8z"/>
			<path id="&lt;Compound Path&gt;" class="s0" d="m347.9 439.2v11c0 3.5 1.8 4.6 3.8 4.6 2.3 0 3.7-1.2 3.7-4.6v-11h4v10.8c0 6.3-3.7 7.9-7.8 7.9-4.1 0-7.7-1.6-7.7-7.8v-10.9z"/>
			<path id="&lt;Compound Path&gt;" class="s0" d="m374.6 442.5h-5.6v-3.3h15.2v3.3h-5.6v15.2h-4z"/>
			<path id="&lt;Compound Path&gt;" class="s0" d="m397.6 439.2v18.5h-3.9v-18.5z"/>
			<path id="&lt;Compound Path&gt;" fill-rule="evenodd" class="s0" d="m426 448.4c0 5.1-3.1 9.5-9.1 9.5-5.8 0-8.8-4.2-8.8-9.5 0-5.3 3.3-9.5 9.1-9.5 5.4 0 8.8 3.8 8.8 9.5zm-13.8 0c0 3.6 1.6 6.3 4.9 6.3 3.5 0 4.8-3 4.8-6.3 0-3.5-1.5-6.2-4.9-6.2-3.3 0-4.8 2.6-4.8 6.2z"/>
			<path id="&lt;Compound Path&gt;" class="s0" d="m436.5 457.7v-18.5h4.9c2.3 4.1 6.6 11.6 7.4 13.6h0.1c-0.2-1.9-0.2-5.1-0.2-8.1v-5.5h3.6v18.5h-4.7c-2-3.6-6.7-12.2-7.6-14.4h-0.1c0.2 1.7 0.2 5.4 0.2 8.8v5.6z"/>
			<path id="&lt;Compound Path&gt;" class="s0" d="m466.2 452.3c0.5 1.8 1.8 2.6 3.9 2.6 2.2 0 3.1-0.8 3.1-2.2 0-1.5-0.9-2.1-4.1-2.9-5-1.1-6.2-3-6.2-5.5 0-3.2 2.4-5.4 6.7-5.4 4.9 0 6.9 2.7 7.2 5.4h-4.1c-0.2-1.2-0.8-2.4-3.2-2.4-1.6 0-2.6 0.7-2.6 2 0 1.3 0.8 1.8 3.8 2.5 5.4 1.2 6.5 3.2 6.5 5.8 0 3.4-2.5 5.7-7.4 5.7-4.7 0-7.1-2.3-7.6-5.6z"/>
		</g>
		<path id="&lt;Compound Path&gt;" fill-rule="evenodd" class="s1" d="m199.1 432.4c-2.5 4.4-8.1 5.9-12.4 3.4-3.6-2.1-5.2-6.2-4.4-10l-15.6-9q0 0.1-0.1 0.1 0 0.1-0.1 0.1 0 0 0 0.1-0.2 0.2-0.5 0.4 0 0.1-0.1 0.2-0.1 0-0.1 0 0 0-0.1 0.1-0.2 0.2-0.4 0.4-0.1 0-0.3 0.1 0 0.1-0.1 0.2-0.2 0.1-0.5 0.3-0.1 0-0.2 0.1-0.1 0.1-0.2 0.2-0.1 0-0.2 0.1-0.2 0.1-0.3 0.1-0.1 0.1-0.2 0.1-0.1 0.1-0.3 0.2-0.2 0.1-0.4 0.2-0.1 0-0.2 0.1-0.2 0-0.3 0.1-0.3 0.1-0.5 0.2-0.1 0-0.2 0 0 0 0 0-0.2 0.1-0.3 0.1-0.3 0.1-0.5 0.2-0.1 0-0.1 0-0.1 0-0.2 0 0 0.1-0.1 0.1v18c3.7 1.2 6.5 4.6 6.5 8.7 0 5-4.1 9.1-9.1 9.1-5.1 0-9.1-4.1-9.1-9.1 0-4.1 2.7-7.5 6.4-8.7v-18q0 0-0.1-0.1-0.1 0-0.1 0-0.1 0-0.1 0-0.3-0.1-0.6-0.2-0.1 0-0.2-0.1-0.1 0-0.1 0-0.1 0-0.1 0-0.3-0.1-0.6-0.2-0.1-0.1-0.2-0.1-0.1-0.1-0.2-0.1-0.3-0.1-0.5-0.2-0.1-0.1-0.3-0.2-0.1 0-0.2-0.1-0.1 0-0.2-0.1-0.1-0.1-0.2-0.1-0.2-0.1-0.3-0.2-0.1-0.1-0.2-0.1-0.2-0.2-0.4-0.3-0.1-0.1-0.2-0.2-0.1-0.1-0.2-0.1-0.3-0.2-0.5-0.4 0-0.1-0.1-0.1 0 0 0 0-0.1-0.1-0.2-0.2-0.2-0.2-0.4-0.4-0.1-0.1-0.1-0.1-0.1-0.1-0.1-0.1 0 0-0.1-0.1l-15.6 9c0.9 3.8-0.8 7.9-4.3 10-4.4 2.5-9.9 1-12.4-3.4-2.5-4.3-1.1-9.9 3.3-12.4 3.5-2 7.9-1.4 10.7 1.3l15.7-9.1q0 0-0.1-0.1 0 0 0-0.1 0-0.1 0-0.1-0.1-0.3-0.2-0.6 0-0.1 0-0.2 0-0.1 0-0.1-0.1-0.1-0.1-0.1 0-0.3-0.1-0.6 0-0.1 0-0.3 0-0.1 0-0.2-0.1-0.2-0.1-0.5 0-0.2 0-0.3 0-0.1 0-0.3 0-0.1 0-0.2 0-0.1 0-0.3 0-0.1 0-0.2 0-0.2 0-0.3 0-0.3 0.1-0.6 0-0.1 0-0.2 0-0.1 0-0.3 0.1-0.2 0.1-0.5 0-0.1 0.1-0.2 0 0 0 0 0-0.1 0-0.3 0.1-0.3 0.2-0.5 0-0.1 0-0.1 0-0.1 0-0.2 0.1 0 0.1-0.1l-15.7-9c-2.8 2.7-7.2 3.3-10.7 1.2-4.4-2.5-5.8-8-3.3-12.4 2.5-4.3 8-5.8 12.4-3.3 3.5 2 5.2 6.1 4.3 9.9l15.6 9q0.1 0 0.1 0 0-0.1 0.1-0.1 0-0.1 0.1-0.1 0.2-0.2 0.4-0.4 0.1-0.1 0.2-0.2 0 0 0 0 0.1-0.1 0.1-0.1 0.2-0.2 0.5-0.4 0.1-0.1 0.2-0.2 0.1 0 0.2-0.1 0.2-0.2 0.4-0.3 0.1-0.1 0.2-0.2 0.1 0 0.3-0.1 0.1-0.1 0.2-0.1 0.1-0.1 0.2-0.2 0.1 0 0.2-0.1 0.2 0 0.3-0.1 0.2-0.1 0.5-0.2 0.1-0.1 0.2-0.1 0.1-0.1 0.2-0.1 0.3-0.1 0.6-0.2 0-0.1 0.1-0.1 0 0 0.1 0 0.1 0 0.2-0.1 0.3-0.1 0.6-0.1 0 0 0.1 0 0-0.1 0.1-0.1 0.1 0 0.1 0v-18.1c-3.7-1.1-6.4-4.6-6.4-8.7 0-5 4-9 9.1-9 5 0 9.1 4 9.1 9 0 4.1-2.8 7.6-6.5 8.7v18.1q0.1 0 0.1 0 0.1 0 0.2 0.1 0 0 0.1 0 0.2 0 0.5 0.1 0.1 0.1 0.3 0.1 0 0 0 0 0.1 0 0.2 0.1 0.2 0.1 0.5 0.2 0.1 0 0.3 0.1 0.1 0 0.2 0.1 0.2 0.1 0.4 0.2 0.2 0.1 0.3 0.1 0.1 0.1 0.2 0.1 0.1 0.1 0.3 0.2 0.1 0 0.2 0.1 0.1 0.1 0.2 0.1 0.1 0.1 0.2 0.2 0.3 0.1 0.5 0.3 0.1 0.1 0.1 0.1 0.2 0.1 0.3 0.2 0.2 0.2 0.4 0.4 0.1 0 0.1 0.1 0 0 0.1 0 0.1 0.1 0.1 0.2 0.3 0.2 0.5 0.4 0 0 0 0.1 0.1 0 0.1 0.1 0.1 0 0.1 0l15.6-9c-0.8-3.8 0.8-7.9 4.4-9.9 4.3-2.5 9.9-1 12.4 3.3 2.5 4.4 1 9.9-3.4 12.4-3.5 2.1-7.9 1.5-10.7-1.2l-15.6 9q0 0.1 0 0.1 0 0.1 0 0.2 0 0 0.1 0.1 0 0.2 0.1 0.5 0 0.2 0.1 0.3 0 0 0 0 0 0.1 0 0.2 0.1 0.3 0.1 0.5 0 0.2 0 0.3 0.1 0.1 0.1 0.2 0 0.3 0 0.6 0 0.1 0 0.3 0 0.1 0 0.2 0 0.2 0 0.3 0 0.1 0 0.2 0 0.2 0 0.3 0 0.1 0 0.3 0 0.3 0 0.5 0 0.1-0.1 0.2 0 0.2 0 0.3 0 0.3-0.1 0.6 0 0 0 0.1 0 0 0 0.1-0.1 0.1-0.1 0.2-0.1 0.3-0.1 0.6-0.1 0-0.1 0.1 0 0.1 0 0.1 0 0.1 0 0.1l15.6 9.1c2.8-2.7 7.2-3.3 10.7-1.3 4.4 2.5 5.9 8.1 3.4 12.4zm-34.6-23.9q0-0.1 0-0.2 0-0.2 0-0.3 0-0.1 0-0.2 0-0.1-0.1-0.2 0-0.2 0-0.3 0-0.1 0-0.1 0-0.2-0.1-0.3 0-0.1 0-0.2-0.1-0.1-0.1-0.2 0-0.1-0.1-0.3 0-0.1 0-0.1-0.1-0.1-0.1-0.3-0.1-0.1-0.1-0.2 0-0.1-0.1-0.1 0-0.2-0.1-0.3-0.1-0.1-0.1-0.2-0.1-0.1-0.1-0.2-0.1-0.1-0.2-0.2 0-0.1-0.1-0.1-0.1-0.2-0.1-0.3-0.1-0.1-0.2-0.2 0 0-0.1-0.1-0.1-0.1-0.2-0.2-0.1-0.1-0.1-0.1-0.1-0.1-0.1-0.2-0.2-0.1-0.3-0.2 0 0-0.1-0.1-0.1 0-0.2-0.1-0.1-0.1-0.2-0.2-0.1 0-0.1-0.1-0.2 0-0.3-0.1-0.1-0.1-0.2-0.1 0-0.1-0.1-0.1-0.2-0.1-0.3-0.2-0.1 0-0.1 0-0.2-0.1-0.3-0.1-0.1-0.1-0.2-0.1-0.1-0.1-0.2-0.1-0.1 0-0.3-0.1-0.1 0-0.1 0-0.1 0-0.2-0.1-0.2 0-0.3 0-0.1-0.1-0.2-0.1-0.1 0-0.2 0-0.1 0-0.3 0 0 0-0.1 0-0.2-0.1-0.3-0.1-0.1 0-0.2 0-0.1 0-0.2 0-0.2 0-0.4 0.1 0 0-0.1 0-0.1 0-0.3 0-0.1 0-0.2 0-0.1 0-0.1 0.1-0.2 0-0.4 0 0 0.1-0.1 0.1-0.1 0-0.2 0-0.2 0.1-0.3 0.1-0.1 0-0.1 0.1-0.2 0-0.3 0.1-0.1 0-0.2 0.1-0.1 0-0.1 0-0.2 0.1-0.3 0.2-0.1 0-0.2 0.1-0.1 0-0.2 0.1-0.1 0.1-0.3 0.1 0 0.1-0.1 0.1-0.1 0.1-0.2 0.2-0.1 0.1-0.2 0.1 0 0.1-0.1 0.1-0.1 0.1-0.2 0.2-0.1 0.1-0.1 0.2-0.1 0-0.2 0.1-0.1 0.1-0.2 0.2 0 0.1-0.1 0.1-0.1 0.1-0.1 0.2-0.1 0.1-0.2 0.3 0 0-0.1 0.1-0.1 0.1-0.1 0.2-0.1 0.1-0.1 0.2-0.1 0.1-0.1 0.2-0.1 0.1-0.2 0.3 0 0 0 0.1-0.1 0.1-0.2 0.2 0 0.2-0.1 0.3 0 0 0 0.1 0 0.2-0.1 0.3 0 0.1 0 0.2-0.1 0.1-0.1 0.2 0 0.1-0.1 0.3 0 0 0 0.1 0 0.1 0 0.3 0 0.1 0 0.2-0.1 0.1-0.1 0.2 0 0.1 0 0.3 0 0.1 0 0.2 0 0.1 0 0.2 0 0.1 0 0.3 0 0.1 0.1 0.1 0 0.2 0 0.3 0 0.1 0 0.3 0 0 0 0.1 0.1 0.1 0.1 0.3 0 0.1 0.1 0.2 0 0.1 0 0.1 0.1 0.2 0.1 0.4 0 0 0 0.1 0.1 0.1 0.1 0.2 0.1 0.1 0.2 0.3 0 0 0 0.1 0.1 0.1 0.2 0.3 0 0.1 0.1 0.2 0 0 0.1 0.1 0 0.2 0.1 0.3 0.1 0 0.1 0.1 0.1 0.1 0.2 0.2 0 0.1 0.1 0.2 0.1 0.1 0.1 0.1 0.1 0.1 0.2 0.3 0.1 0 0.2 0.1 0 0 0.1 0.1 0.1 0.1 0.2 0.2 0.1 0.1 0.1 0.1 0.1 0.1 0.2 0.2 0.1 0.1 0.2 0.1 0.1 0.1 0.1 0.1 0.2 0.1 0.3 0.2 0.1 0 0.2 0.1 0.1 0 0.2 0.1 0.1 0.1 0.3 0.1 0 0.1 0.1 0.1 0.1 0 0.2 0.1 0.1 0.1 0.3 0.1 0 0 0.1 0 0.1 0.1 0.3 0.1 0.1 0.1 0.2 0.1 0.1 0 0.1 0 0.2 0.1 0.4 0.1 0 0 0.1 0 0.1 0 0.2 0.1 0.2 0 0.3 0 0.1 0 0.1 0 0.2 0 0.4 0 0.1 0 0.2 0 0.1 0 0.2 0 0.1 0 0.3 0 0.1 0 0.1 0 0.2 0 0.3 0 0.1-0.1 0.2-0.1 0.1 0 0.2 0 0.1 0 0.3-0.1 0.1 0 0.2 0 0 0 0.1-0.1 0.2 0 0.3-0.1 0.1 0 0.2 0 0.1 0 0.2-0.1 0.1-0.1 0.3-0.1 0 0 0.1-0.1 0.1 0 0.3-0.1 0.1-0.1 0.1-0.1 0.1-0.1 0.2-0.1 0.1-0.1 0.3-0.2 0 0 0.1-0.1 0.1 0 0.2-0.1 0.1-0.1 0.2-0.2 0.1 0 0.1-0.1 0.1-0.1 0.3-0.2 0 0 0.1-0.1 0-0.1 0.1-0.1 0.1-0.2 0.2-0.3 0.1 0 0.1-0.1 0.1-0.1 0.2-0.2 0-0.1 0.1-0.2 0.1-0.1 0.1-0.1 0.1-0.1 0.2-0.3 0-0.1 0.1-0.1 0-0.1 0.1-0.2 0.1-0.2 0.1-0.3 0-0.1 0.1-0.1 0-0.2 0.1-0.3 0-0.1 0.1-0.2 0-0.1 0-0.1 0.1-0.2 0.1-0.4 0 0 0.1-0.1 0-0.1 0-0.2 0.1-0.2 0.1-0.3 0-0.1 0-0.1 0-0.2 0-0.3 0.1-0.1 0.1-0.3 0 0 0-0.1 0-0.2 0-0.3 0-0.1 0-0.2z"/>
		<path id="&lt;Path&gt;" class="s1" d="m388.4 380.1v8.9c4.1 2.6 6.8 7.2 6.8 12.4 0 8.2-6.7 14.9-14.9 14.9-8.2 0-14.8-6.7-14.8-14.9 0-5.2 2.7-9.8 6.7-12.4v-8.9c-8.6 3.2-14.7 11.6-14.7 21.3 0 12.7 10.2 22.9 22.8 22.9 12.6 0 22.9-10.2 22.9-22.9 0-9.7-6.2-18.1-14.8-21.3z"/>
		<path id="&lt;Path&gt;" class="s1" d="m383.9 398h-7.2v-24.1h7.2z"/>
	</g>
</svg>